<?xml version="1.0" encoding="UTF-8"?>
<svg version="1.1" xmlns="http://www.w3.org/2000/svg" width="224" height="224">
<path d="M0 0 C73.92 0 147.84 0 224 0 C224 73.92 224 147.84 224 224 C150.08 224 76.16 224 0 224 C0 150.08 0 76.16 0 0 Z " fill="#FDFDFD" transform="translate(0,0)"/>
<path d="M0 0 C73.92 0 147.84 0 224 0 C224 73.92 224 147.84 224 224 C150.08 224 76.16 224 0 224 C0 150.08 0 76.16 0 0 Z M36 27 C36 80.46 36 133.92 36 189 C89.46 189 142.92 189 198 189 C198 135.54 198 82.08 198 27 C144.54 27 91.08 27 36 27 Z " fill="#FEFEFE" transform="translate(0,0)"/>
<path d="M0 0 C12.50904832 9.36877405 21.24278642 21.53102113 24.40625 36.9921875 C25.74074411 47.13434272 25.40298501 57.45193586 21.81640625 67.109375 C21.15640625 67.769375 20.49640625 68.429375 19.81640625 69.109375 C19.94917969 68.51511719 20.08195312 67.92085938 20.21875 67.30859375 C21.57901874 60.92426675 22.34625635 54.61723946 22.81640625 48.109375 C19.59710063 47.37161746 17.02567599 47.26378929 13.81640625 48.109375 C8.83130404 52.06307675 5.88794678 56.96919866 5.14453125 63.296875 C5.06814616 64.73310925 5.02105055 66.17121312 5.00390625 67.609375 C4.99222412 68.30353516 4.98054199 68.99769531 4.96850586 69.71289062 C4.99662258 71.9608875 4.99662258 71.9608875 5.81640625 75.109375 C8.06922784 77.21297971 8.06922784 77.21297971 10.81640625 78.109375 C13.55879768 77.89608051 13.55879768 77.89608051 15.81640625 77.109375 C12.98817881 86.44252555 4.70353462 92.12362054 -3.18359375 97.109375 C-16.99646586 104.4515191 -31.46376648 106.18489054 -46.8671875 103.45703125 C-49.80116571 102.54917345 -52.43287662 101.47259805 -55.18359375 100.109375 C-56.18390625 99.62339844 -57.18421875 99.13742188 -58.21484375 98.63671875 C-67.54852994 93.65168181 -76.02574781 86.48727671 -81.18359375 77.109375 C-81.18359375 76.449375 -81.18359375 75.789375 -81.18359375 75.109375 C-81.84359375 75.109375 -82.50359375 75.109375 -83.18359375 75.109375 C-82.85359375 73.789375 -82.52359375 72.469375 -82.18359375 71.109375 C-80.20359375 74.574375 -80.20359375 74.574375 -78.18359375 78.109375 C-74.05385747 77.54197632 -74.05385747 77.54197632 -70.18359375 76.109375 C-69.71460412 73.2933901 -69.71460412 73.2933901 -69.55859375 70.046875 C-69.48382813 68.94214844 -69.4090625 67.83742188 -69.33203125 66.69921875 C-69.28304687 65.84457031 -69.2340625 64.98992187 -69.18359375 64.109375 C-68.85359375 64.109375 -68.52359375 64.109375 -68.18359375 64.109375 C-68.33183594 64.82480469 -68.48007813 65.54023437 -68.6328125 66.27734375 C-68.94328818 70.21173229 -68.70775139 72.42123953 -67.18359375 76.109375 C-64.39476365 78.94246034 -61.28925386 81.14681669 -57.99609375 83.359375 C-57.1455542 83.93196045 -56.29501465 84.5045459 -55.41870117 85.09448242 C-49.28625922 88.96446379 -49.28625922 88.96446379 -42.18359375 89.109375 C-39.64349055 88.50097622 -39.64349055 88.50097622 -37.30859375 87.609375 C-36.52742188 87.3309375 -35.74625 87.0525 -34.94140625 86.765625 C-34.36132812 86.5490625 -33.78125 86.3325 -33.18359375 86.109375 C-32.71075508 79.79879741 -32.41171398 74.26985034 -36.5703125 69.19921875 C-39.66548806 66.63509764 -42.84539871 64.33511928 -46.18359375 62.109375 C-47.98938256 60.85109842 -49.79265707 59.58920784 -51.59375 58.32421875 C-52.46265869 57.71570068 -53.33156738 57.10718262 -54.22680664 56.48022461 C-55.19541626 55.80165405 -55.19541626 55.80165405 -56.18359375 55.109375 C-55.90572021 54.37299805 -55.62784668 53.63662109 -55.34155273 52.87792969 C-54.09011629 49.54251891 -52.85545595 46.20114012 -51.62109375 42.859375 C-51.18345703 41.70050781 -50.74582031 40.54164062 -50.29492188 39.34765625 C-49.88564453 38.23261719 -49.47636719 37.11757812 -49.0546875 35.96875 C-48.6723999 34.94233398 -48.2901123 33.91591797 -47.89624023 32.85839844 C-47.163878 30.03332176 -47.1184959 28.78027845 -48.18359375 26.109375 C-50.12523551 23.23912196 -52.24101666 20.95835064 -55.18359375 19.109375 C-57.52049141 19.14412441 -59.1355855 19.63748566 -61.2890625 20.5234375 C-63.60587742 21.2399782 -64.91572023 20.86365666 -67.18359375 20.109375 C-65.7480535 19.60377592 -64.31007355 19.1051001 -62.87109375 18.609375 C-62.07058594 18.3309375 -61.27007812 18.0525 -60.4453125 17.765625 C-58.18359375 17.109375 -58.18359375 17.109375 -55.18359375 17.109375 C-54.85359375 16.119375 -54.52359375 15.129375 -54.18359375 14.109375 C-54.08481934 14.68308838 -53.98604492 15.25680176 -53.88427734 15.84790039 C-52.44994691 20.47723935 -49.15386684 23.48863668 -45.18359375 26.109375 C-40.60480632 27.27902733 -36.26379417 27.2760398 -31.55859375 27.171875 C-29.75648437 27.23084961 -29.75648437 27.23084961 -27.91796875 27.29101562 C-21.41440552 27.31916365 -21.41440552 27.31916365 -15.97753906 24.17138672 C-12.88418118 19.94913487 -12.88418118 19.94913487 -12.4777832 14.93237305 C-13.29552761 12.82026738 -14.36233711 11.27419129 -15.74609375 9.484375 C-18.18359375 6.32183959 -18.18359375 6.32183959 -18.18359375 4.109375 C-27.75359375 4.439375 -37.32359375 4.769375 -47.18359375 5.109375 C-48.17359375 2.139375 -49.16359375 -0.830625 -50.18359375 -3.890625 C-51.50359375 -4.220625 -52.82359375 -4.550625 -54.18359375 -4.890625 C-52.35828125 -5.6021875 -52.35828125 -5.6021875 -50.49609375 -6.328125 C-49.46935547 -6.72837891 -49.46935547 -6.72837891 -48.421875 -7.13671875 C-32.87581205 -12.37300173 -13.57423919 -8.64318903 0 0 Z " fill="#0F0F0F" transform="translate(149.18359375,60.890625)"/>
<path d="M0 0 C0.66 0.33 1.32 0.66 2 1 C-0.97 3.97 -3.94 6.94 -7 10 C-5.45957252 14.80304035 -5.45957252 14.80304035 -3 17 C1.60686423 17.31771477 4.68287459 17.16833959 8.9375 15.4375 C10.8984375 14.8671875 10.8984375 14.8671875 13 15 C16.67278624 17.45229112 19.64458696 20.25564561 22 24 C21.55639522 27.48070287 20.50533203 30.7003775 19.37109375 34.01171875 C19.05849609 34.93404297 18.74589844 35.85636719 18.42382812 36.80664062 C18.09833984 37.75732422 17.77285156 38.70800781 17.4375 39.6875 C16.78760968 41.58629891 16.14033842 43.4859969 15.49609375 45.38671875 C15.06574829 46.64295044 15.06574829 46.64295044 14.62670898 47.92456055 C13.90364242 49.95776946 13.90364242 49.95776946 14 52 C15.31727822 53.32967045 15.31727822 53.32967045 17.0703125 54.64453125 C17.72 55.15693359 18.3696875 55.66933594 19.0390625 56.19726562 C19.72742188 56.73029297 20.41578125 57.26332031 21.125 57.8125 C23.12115972 59.377319 25.11573258 60.94343387 27.10009766 62.52319336 C28.31262126 63.46569597 29.55059427 64.37689753 30.81787109 65.24438477 C34.0018318 67.53041394 34.93759211 68.62180819 35.5859375 72.55078125 C35.51632813 73.79214844 35.44671875 75.03351563 35.375 76.3125 C35.32085937 77.56675781 35.26671875 78.82101563 35.2109375 80.11328125 C35.10652344 81.54220703 35.10652344 81.54220703 35 83 C33.63201789 83.68095109 32.25515997 84.34408239 30.875 85 C30.10929687 85.37125 29.34359375 85.7425 28.5546875 86.125 C25.24881434 87.25728683 23.49842035 87.56305937 20 87 C16.57643029 85.09902584 13.46308356 82.8189452 10.3125 80.5 C8.62549228 79.27516874 6.9342666 78.05611973 5.23828125 76.84375 C4.49618408 76.29912109 3.75408691 75.75449219 2.98950195 75.19335938 C0.95788141 73.74280629 0.95788141 73.74280629 -2 74 C-2.804375 74.350625 -3.60875 74.70125 -4.4375 75.0625 C-7 76 -7 76 -9.125 75.9375 C-11.85477745 74.57261128 -12.68698971 72.69167108 -14 70 C-14 69.34 -14 68.68 -14 68 C-14.66 68 -15.32 68 -16 68 C-16.64964023 66.10546779 -17.29455115 64.20931351 -17.9375 62.3125 C-18.47697266 60.72888672 -18.47697266 60.72888672 -19.02734375 59.11328125 C-23.819006 43.77611334 -20.27306362 29.25677694 -13.04296875 15.3515625 C-9.96495499 10.30197206 -6.19815167 6.13830022 -2 2 C-1.34 1.34 -0.68 0.68 0 0 Z " fill="#101010" transform="translate(81,64)"/>
<path d="M0 0 C12.50904832 9.36877405 21.24278642 21.53102113 24.40625 36.9921875 C25.74074411 47.13434272 25.40298501 57.45193586 21.81640625 67.109375 C21.15640625 67.769375 20.49640625 68.429375 19.81640625 69.109375 C19.94917969 68.51511719 20.08195312 67.92085938 20.21875 67.30859375 C21.57901874 60.92426675 22.34625635 54.61723946 22.81640625 48.109375 C16.47566518 47.45130253 16.47566518 47.45130253 11.00390625 50.296875 C8.78958948 53.06352697 8.78958948 53.06352697 6.94140625 55.984375 C6.24015625 56.685625 5.53890625 57.386875 4.81640625 58.109375 C1.44140625 58.046875 1.44140625 58.046875 -2.18359375 57.109375 C-3.19566895 56.87250977 -4.20774414 56.63564453 -5.25048828 56.39160156 C-8.18359375 55.109375 -8.18359375 55.109375 -9.69091797 52.68261719 C-10.03654785 51.68391602 -10.38217773 50.68521484 -10.73828125 49.65625 C-11.125 48.56183594 -11.51171875 47.46742187 -11.91015625 46.33984375 C-12.47863281 44.61701172 -12.47863281 44.61701172 -13.05859375 42.859375 C-13.46078125 41.72628906 -13.86296875 40.59320313 -14.27734375 39.42578125 C-16.09690654 34.14657356 -17.5539375 29.75323328 -17.18359375 24.109375 C-16.0546875 22.1328125 -16.0546875 22.1328125 -14.62109375 20.484375 C-13.1482633 18.88800281 -13.1482633 18.88800281 -12.18359375 17.109375 C-12.48347328 13.93564999 -13.82730357 11.96622897 -15.74609375 9.484375 C-18.18359375 6.32183959 -18.18359375 6.32183959 -18.18359375 4.109375 C-27.75359375 4.439375 -37.32359375 4.769375 -47.18359375 5.109375 C-48.17359375 2.139375 -49.16359375 -0.830625 -50.18359375 -3.890625 C-51.50359375 -4.220625 -52.82359375 -4.550625 -54.18359375 -4.890625 C-52.96671875 -5.365 -51.74984375 -5.839375 -50.49609375 -6.328125 C-49.81160156 -6.59496094 -49.12710938 -6.86179688 -48.421875 -7.13671875 C-32.87581205 -12.37300173 -13.57423919 -8.64318903 0 0 Z " fill="#101010" transform="translate(149.18359375,60.890625)"/>
<path d="M0 0 C0.09990234 0.57298828 0.19980469 1.14597656 0.30273438 1.73632812 C1.74006133 6.40260806 4.93766833 9.43714664 9 12 C13.87764614 12.95810906 18.55336873 12.76140734 23.5 12.5 C24.799375 12.46390625 26.09875 12.4278125 27.4375 12.390625 C30.62807905 12.29678444 33.81247549 12.16561878 37 12 C37.20157715 12.60996826 37.4031543 13.21993652 37.61083984 13.84838867 C38.53062885 16.62862396 39.4527916 19.40806634 40.375 22.1875 C40.85066406 23.62706055 40.85066406 23.62706055 41.3359375 25.09570312 C41.6453125 26.02705078 41.9546875 26.95839844 42.2734375 27.91796875 C42.55622559 28.77156982 42.83901367 29.6251709 43.13037109 30.50463867 C43.73903141 32.25116229 44.40657109 33.97776171 45.11669922 35.68554688 C46 38 46 38 45.859375 40.11328125 C43.99692402 44.20220772 39.55090729 46.4537877 36 49 C34.88390585 49.82914618 33.76803031 50.65858669 32.65234375 51.48828125 C31.49851424 52.32706147 30.34357275 53.16431429 29.1875 54 C28.36137207 54.61524536 28.36137207 54.61524536 27.51855469 55.24291992 C23.53010086 58.06391754 23.53010086 58.06391754 21.03393555 57.76293945 C18.804748 56.92675999 17.36874354 55.93510733 15.5390625 54.41796875 C14.90226562 53.89783203 14.26546875 53.37769531 13.609375 52.84179688 C12.95453125 52.29587891 12.2996875 51.74996094 11.625 51.1875 C7.21037724 47.5423583 2.82684058 44.08589034 -2 41 C-1.72212646 40.26362305 -1.44425293 39.52724609 -1.15795898 38.76855469 C0.09347746 35.43314391 1.3281378 32.09176512 2.5625 28.75 C3.00013672 27.59113281 3.43777344 26.43226562 3.88867188 25.23828125 C4.29794922 24.12324219 4.70722656 23.00820312 5.12890625 21.859375 C5.51119385 20.83295898 5.89348145 19.80654297 6.28735352 18.74902344 C7.01971575 15.92394676 7.06509785 14.67090345 6 12 C4.05835824 9.12974696 1.94257709 6.84897564 -1 5 C-3.33689766 5.03474941 -4.95199175 5.52811066 -7.10546875 6.4140625 C-9.42228367 7.1306032 -10.73212648 6.75428166 -13 6 C-11.56445975 5.49440092 -10.1264798 4.9957251 -8.6875 4.5 C-7.88699219 4.2215625 -7.08648437 3.943125 -6.26171875 3.65625 C-4 3 -4 3 -1 3 C-0.67 2.01 -0.34 1.02 0 0 Z " fill="#030303" transform="translate(95,75)"/>
<path d="M0 0 C1.32 2.64 2.64 5.28 4 8 C4.81154541 7.94763184 5.62309082 7.89526367 6.45922852 7.84130859 C10.15952145 7.6326107 13.8585791 7.50316335 17.5625 7.375 C18.83931641 7.29121094 20.11613281 7.20742187 21.43164062 7.12109375 C30.68646222 6.88070877 30.68646222 6.88070877 34.49951172 10.12988281 C39.15605631 16.43039011 39.15605631 16.43039011 38.79785156 20.03320312 C37.0680198 24.29743957 35.45860484 27.84803435 32 31 C27.53904706 32.35198743 23.31805683 32.2596527 18.6875 32.125 C17.50220703 32.15980469 16.31691406 32.19460937 15.09570312 32.23046875 C8.40002038 32.16362333 4.54575923 31.34285769 -0.35546875 26.6171875 C-4 22.5704584 -4 22.5704584 -4 19 C-4.33 19.66 -4.66 20.32 -5 21 C-7.546875 22.10546875 -7.546875 22.10546875 -10.75 23.1875 C-11.79671875 23.55230469 -12.8434375 23.91710937 -13.921875 24.29296875 C-17.13902261 25.03193286 -18.89820004 25.06439583 -22 24 C-24.3125 21.4375 -24.3125 21.4375 -26 19 C-24.63757574 15.93286756 -23.10300295 13.88159707 -20.6875 11.5625 C-20.06488281 10.96050781 -19.44226563 10.35851562 -18.80078125 9.73828125 C-17.90939453 8.87783203 -17.90939453 8.87783203 -17 8 C-16.13375 7.0925 -15.2675 6.185 -14.375 5.25 C-9.61770505 0.743089 -6.60717246 -0.3886572 0 0 Z " fill="#FCFCFC" transform="translate(99,57)"/>
<path d="M0 0 C15.51 0 31.02 0 47 0 C47 6.6 47 13.2 47 20 C31.49 20 15.98 20 0 20 C0 13.4 0 6.8 0 0 Z " fill="#FDFDFD" transform="translate(151,0)"/>
<path d="M0 0 C3.70017692 1.05719341 6.97931919 2.4576065 10.5 4 C11.40284637 9.33013747 12.24366391 14.77023705 10.5 20 C7.02707667 24.4137326 2.03797928 27.22591702 -2.78027344 29.97851562 C-4.65062842 31.03313562 -4.65062842 31.03313562 -6.71875 32.80078125 C-9.58273443 34.7289462 -11.82690372 34.01124472 -15.10546875 33.52734375 C-18.75710322 32.72315019 -22.05212913 31.44183691 -25.5 30 C-26.47472372 25.05417962 -26.743653 20.91443524 -25.5 16 C-22.02882801 11.75579401 -17.13448379 8.98713619 -12.47021484 6.21826172 C-10.46197022 4.97648468 -8.60620024 3.61367416 -6.72265625 2.19140625 C-3.5 0 -3.5 0 0 0 Z " fill="#FAFAFA" transform="translate(142.5,117)"/>
<path d="M0 0 C2.21794763 1.34166964 3.9993178 2.77788023 5.87890625 4.5625 C6.50410156 5.13613281 7.12929687 5.70976563 7.7734375 6.30078125 C9.06640625 8.25 9.06640625 8.25 8.72924805 10.56298828 C7.62930988 15.02189047 6.39631007 19.41659619 5.06640625 23.8125 C4.68548828 25.23079102 4.68548828 25.23079102 4.296875 26.67773438 C2.20684754 33.42976372 2.20684754 33.42976372 -0.98046875 35.72216797 C-3.27473479 36.76199786 -5.51614129 37.54830207 -7.93359375 38.25 C-9.10921875 38.6625 -10.28484375 39.075 -11.49609375 39.5 C-12.30046875 39.7475 -13.10484375 39.995 -13.93359375 40.25 C-21.4330194 32.38955168 -21.4330194 32.38955168 -22.41796875 28.1796875 C-22.20726651 25.73745705 -21.61895368 23.60883586 -20.93359375 21.25 C-20.62027394 19.837995 -20.31073089 18.42514935 -20.00390625 17.01171875 C-19.631098 15.46498201 -19.25343387 13.91940816 -18.87109375 12.375 C-18.62129761 11.24952759 -18.62129761 11.24952759 -18.36645508 10.10131836 C-16.9222937 4.85084939 -16.9222937 4.85084939 -14.07958984 3.12329102 C-12.04516264 2.35880419 -10.03842696 1.78451513 -7.93359375 1.25 C-6.86109375 0.816875 -5.78859375 0.38375 -4.68359375 -0.0625 C-1.93359375 -0.75 -1.93359375 -0.75 0 0 Z " fill="#FAFAFA" transform="translate(93.93359375,79.75)"/>
<path d="M0 0 C2.03885314 1.2202982 3.93319278 2.51423289 5.83325195 3.94067383 C6.52870117 4.46209961 7.22415039 4.98352539 7.94067383 5.52075195 C8.65674805 6.06280273 9.37282227 6.60485352 10.1105957 7.16333008 C10.83053711 7.70151367 11.55047852 8.23969727 12.29223633 8.79418945 C19.11798741 13.93410043 19.11798741 13.93410043 21.0480957 16.22583008 C21.34106445 19.58129883 21.34106445 19.58129883 21.2355957 23.41333008 C21.19499023 25.32178711 21.19499023 25.32178711 21.15356445 27.26879883 C21.11875977 28.24461914 21.08395508 29.22043945 21.0480957 30.22583008 C19.68011359 30.90678117 18.30325567 31.56991247 16.9230957 32.22583008 C16.15739258 32.59708008 15.39168945 32.96833008 14.6027832 33.35083008 C11.29697927 34.4830932 9.54753231 34.78359152 6.0480957 34.22583008 C2.5793338 32.35239636 -0.57289543 30.09559046 -3.7644043 27.78833008 C-4.63516602 27.17666992 -5.50592773 26.56500977 -6.40307617 25.93481445 C-12.64783684 21.52989754 -12.64783684 21.52989754 -13.9519043 20.22583008 C-14.02510051 17.52928154 -14.04432967 14.8589155 -14.0144043 12.16333008 C-14.00989258 11.4047168 -14.00538086 10.64610352 -14.00073242 9.86450195 C-13.9889111 7.98491137 -13.97097507 6.10536109 -13.9519043 4.22583008 C-12.04400398 3.33187678 -10.12516624 2.46123674 -8.2019043 1.60083008 C-7.13456055 1.11356445 -6.0672168 0.62629883 -4.9675293 0.12426758 C-1.9519043 -0.77416992 -1.9519043 -0.77416992 0 0 Z " fill="#FBFBFB" transform="translate(94.951904296875,116.774169921875)"/>
<path d="M0 0 C2.36736841 0.2518477 4.65827434 0.5877831 7 1 C7.7211499 1.10022461 8.4422998 1.20044922 9.18530273 1.30371094 C13.08927225 2.16004913 15.33268104 3.01444132 17.62182617 6.39526367 C19.03350544 9.53606125 20.12294135 12.64308984 21.125 15.9375 C21.66253906 17.63217407 21.66253906 17.63217407 22.2109375 19.36108398 C24.75495383 28.69161421 24.75495383 28.69161421 22.4921875 33.3203125 C20.42845655 36.36330233 17.90549225 38.74521695 15 41 C10.43352271 40.45202272 6.21431021 39.88214992 2 38 C0.47680664 35.55737305 0.47680664 35.55737305 -0.58984375 32.51171875 C-0.98107422 31.41279297 -1.37230469 30.31386719 -1.77539062 29.18164062 C-2.15888672 28.02857422 -2.54238281 26.87550781 -2.9375 25.6875 C-3.34806641 24.54603516 -3.75863281 23.40457031 -4.18164062 22.22851562 C-7.45597534 12.78098325 -7.45597534 12.78098325 -6 8 C-4.58984375 5.76171875 -4.58984375 5.76171875 -2.9375 3.6875 C-2.38964844 2.99011719 -1.84179688 2.29273437 -1.27734375 1.57421875 C-0.64505859 0.79498047 -0.64505859 0.79498047 0 0 Z " fill="#FAFAFA" transform="translate(139,78)"/>
<path d="M0 0 C0.33 0 0.66 0 1 0 C0.85175781 0.71542969 0.70351562 1.43085937 0.55078125 2.16796875 C0.24034933 6.1018027 0.47469929 8.31317689 2 12 C8.26036142 18.30414017 17.90325132 25.47890965 27 26 C26.525625 26.495 26.05125 26.99 25.5625 27.5 C23.37832093 30.99468651 23.34086089 33.90966936 23 38 C11.65066615 37.49558516 2.59159638 29.84893863 -5 22 C-12 13.94623656 -12 13.94623656 -12 11 C-12.66 11 -13.32 11 -14 11 C-13.67 9.68 -13.34 8.36 -13 7 C-11.68 9.31 -10.36 11.62 -9 14 C-4.87026372 13.43260132 -4.87026372 13.43260132 -1 12 C-0.53101037 9.1840151 -0.53101037 9.1840151 -0.375 5.9375 C-0.30023438 4.83277344 -0.22546875 3.72804687 -0.1484375 2.58984375 C-0.09945312 1.73519531 -0.05046875 0.88054687 0 0 Z " fill="#070707" transform="translate(80,125)"/>
<path d="M0 0 C0.26554687 0.56589844 0.53109375 1.13179687 0.8046875 1.71484375 C1.15789062 2.44832031 1.51109375 3.18179688 1.875 3.9375 C2.22304687 4.66839844 2.57109375 5.39929687 2.9296875 6.15234375 C3.8684977 8.16332459 3.8684977 8.16332459 6 9 C5.29875 9.680625 4.5975 10.36125 3.875 11.0625 C2.33793829 12.56124161 1.0009877 13.99861288 -0.24609375 15.75 C-4.48232143 21.58266956 -9.99071617 23.71700861 -17 25 C-20.84200834 24.65322847 -21.65815435 24.37880194 -24.3125 21.4375 C-24.869375 20.633125 -25.42625 19.82875 -26 19 C-24.63757574 15.93286756 -23.10300295 13.88159707 -20.6875 11.5625 C-20.06488281 10.96050781 -19.44226563 10.35851562 -18.80078125 9.73828125 C-17.90939453 8.87783203 -17.90939453 8.87783203 -17 8 C-16.13375 7.0925 -15.2675 6.185 -14.375 5.25 C-9.61770505 0.743089 -6.60717246 -0.3886572 0 0 Z " fill="#EAEAEA" transform="translate(99,57)"/>
<path d="M0 0 C2.28515625 0.609375 2.28515625 0.609375 3.9375 1.25 C4.65180071 10.79385114 3.83323653 22.63146959 -2.546875 30.1953125 C-5.0625 32.25 -5.0625 32.25 -7.625 32.25 C-10.3398201 31.13622765 -11.97910323 30.3376836 -14.0625 28.25 C-15.44114485 21.67668231 -15.51888093 14.56039322 -12.359375 8.4921875 C-6.17369211 -0.65656726 -6.17369211 -0.65656726 0 0 Z " fill="#F2F2F2" transform="translate(168.0625,107.75)"/>
<path d="M0 0 C-0.66 0.33 -1.32 0.66 -2 1 C-2.71247732 2.6476038 -3.37400383 4.31763529 -4 6 C-4.66 7.32 -5.32 8.64 -6 10 C-15.57 10.33 -25.14 10.66 -35 11 C-35.99 8.03 -36.98 5.06 -38 2 C-39.32 1.67 -40.64 1.34 -42 1 C-40.783125 0.525625 -39.56625 0.05125 -38.3125 -0.4375 C-37.62800781 -0.70433594 -36.94351563 -0.97117188 -36.23828125 -1.24609375 C-24.56327672 -5.17851238 -11.56097587 -3.32576018 0 0 Z " fill="#060606" transform="translate(137,55)"/>
<path d="M0 0 C4.25433147 3.32457691 8.34366634 7.64148499 9.40869141 13.09130859 C9.77625223 17.75984878 9.47265766 22.34928199 9 27 C3.70043237 30.01111797 3.70043237 30.01111797 0.78515625 29.96484375 C-4.21970778 27.25980783 -6.12891657 18.99722316 -7.8125 13.875 C-9.05882879 9.44983261 -9.25433914 5.57810445 -9 1 C-5.846632 0.29925156 -3.27275026 0 0 0 Z " fill="#F7F7F7" transform="translate(71,110)"/>
<path d="M0 0 C10.70688239 3.24498485 18.53329815 9.86959132 26 18 C21.375 22.875 21.375 22.875 18 24 C12.52059986 23.2350695 7.48733457 22.13923499 3.0625 18.75 C2.381875 17.8425 1.70125 16.935 1 16 C0.5153125 15.43796875 0.030625 14.8759375 -0.46875 14.296875 C-1.87640589 12.57474279 -3.04038055 11.00689644 -4 9 C-3.4375 6.3125 -3.4375 6.3125 -2 4 C-1.62875 3.236875 -1.2575 2.47375 -0.875 1.6875 C-0.58625 1.130625 -0.2975 0.57375 0 0 Z " fill="#F9F9F9" transform="translate(135,56)"/>
<path d="M0 0 C0.79664062 0.18949219 1.59328125 0.37898437 2.4140625 0.57421875 C5.56869373 1.38085898 8.69186684 2.2579497 11.8125 3.1875 C11.8125 6.4875 11.8125 9.7875 11.8125 13.1875 C2.65744644 16.73684384 -7.92216295 16.21291618 -17.1875 13.1875 C-16.97359602 9.95823995 -16.53857664 7.1445734 -15.1875 4.1875 C-12.3766075 2.21084213 -9.44764745 1.20933726 -6.1875 0.1875 C-3.64626161 -1.08311919 -2.72655731 -0.65230889 0 0 Z " fill="#FBFBFB" transform="translate(119.1875,148.8125)"/>
<path d="M0 0 C1.76923828 0.01353516 1.76923828 0.01353516 3.57421875 0.02734375 C4.47785156 0.03894531 5.38148437 0.05054688 6.3125 0.0625 C6.3125 1.0625 6.3125 2.0625 6.3125 3.0625 C6.6425 2.5675 6.9725 2.0725 7.3125 1.5625 C10.48822747 -0.81929561 13.41496066 -0.12918226 17.3125 0.0625 C17.8075 2.0425 17.8075 2.0425 18.3125 4.0625 C18.9725 4.0625 19.6325 4.0625 20.3125 4.0625 C20.9725 2.7425 21.6325 1.4225 22.3125 0.0625 C23.6325 0.3925 24.9525 0.7225 26.3125 1.0625 C26.8075 4.0325 26.8075 4.0325 27.3125 7.0625 C25.3325 6.4025 23.3525 5.7425 21.3125 5.0625 C20.3225 6.0525 19.3325 7.0425 18.3125 8.0625 C17.6525 6.7425 16.9925 5.4225 16.3125 4.0625 C16.3125 5.3825 16.3125 6.7025 16.3125 8.0625 C14.0025 8.0625 11.6925 8.0625 9.3125 8.0625 C9.9725 7.7325 10.6325 7.4025 11.3125 7.0625 C11.3125 6.4025 11.3125 5.7425 11.3125 5.0625 C10.755625 5.578125 10.19875 6.09375 9.625 6.625 C7.3125 8.0625 7.3125 8.0625 4.5625 7.75 C3.82 7.523125 3.0775 7.29625 2.3125 7.0625 C1.9825 5.4125 1.6525 3.7625 1.3125 2.0625 C-0.3375 2.7225 -1.9875 3.3825 -3.6875 4.0625 C-3.6875 5.0525 -3.6875 6.0425 -3.6875 7.0625 C-8.4375 7.1875 -8.4375 7.1875 -10.6875 6.0625 C-10.6875 6.7225 -10.6875 7.3825 -10.6875 8.0625 C-12.0075 8.0625 -13.3275 8.0625 -14.6875 8.0625 C-14.6875 6.4125 -14.6875 4.7625 -14.6875 3.0625 C-13.0375 3.0625 -11.3875 3.0625 -9.6875 3.0625 C-9.6875 2.4025 -9.6875 1.7425 -9.6875 1.0625 C-6.26517028 -0.07827657 -3.60076783 -0.03565117 0 0 Z " fill="#ECECEC" transform="translate(58.6875,5.9375)"/>
<path d="M0 0 C15.51 0 31.02 0 47 0 C47 6.6 47 13.2 47 20 C31.49 20 15.98 20 0 20 C0 13.4 0 6.8 0 0 Z M12 1 C12 1.66 12 2.32 12 3 C8.37 3 4.74 3 1 3 C1 8.28 1 13.56 1 19 C15.85 19 30.7 19 46 19 C46 13.06 46 7.12 46 1 C38.08 1 30.16 1 22 1 C22 1.66 22 2.32 22 3 C18.7 2.34 15.4 1.68 12 1 Z " fill="#E8E8E8" transform="translate(151,0)"/>
<path d="M0 0 C0.86625 0.2784375 0.86625 0.2784375 1.75 0.5625 C4.26845636 1.05219985 5.55452304 0.66694826 8 0 C9.66617115 -0.04063832 11.33388095 -0.042721 13 0 C13.99 0 14.98 0 16 0 C16.99 0.33 17.98 0.66 19 1 C19 3.31 19 5.62 19 8 C13.83029757 8.09034431 9.07581935 8.04502163 4 7 C1.76832815 7.36856864 1.76832815 7.36856864 0 8 C0 7.34 0 6.68 0 6 C0.66 6 1.32 6 2 6 C2 5.34 2 4.68 2 4 C1.01 4.33 0.02 4.66 -1 5 C-0.67 3.35 -0.34 1.7 0 0 Z " fill="#D3D3D3" transform="translate(174,6)"/>
<path d="M0 0 C-0.495 0.61875 -0.99 1.2375 -1.5 1.875 C-3.19222773 3.83880904 -3.19222773 3.83880904 -3 6 C-7.75 6.125 -7.75 6.125 -10 5 C-10 5.66 -10 6.32 -10 7 C-11.32 7 -12.64 7 -14 7 C-14 5.35 -14 3.7 -14 2 C-12.35 2 -10.7 2 -9 2 C-9 1.34 -9 0.68 -9 0 C-5.52176885 -1.15941038 -3.54104422 -0.70820884 0 0 Z " fill="#EEEEEE" transform="translate(58,7)"/>
<path d="M0 0 C1.485 0.99 1.485 0.99 3 2 C4.96909616 1.98921538 4.96909616 1.98921538 7 1.5625 C10.00862759 1.02117496 10.96606778 0.98868926 14 2 C13.67 3.32 13.34 4.64 13 6 C8.71 6 4.42 6 0 6 C0 4.02 0 2.04 0 0 Z " fill="#E3E3E3" transform="translate(149,218)"/>
<path d="M0 0 C0.99 1.485 0.99 1.485 2 3 C1.67 3.66 1.34 4.32 1 5 C1.99 5 2.98 5 4 5 C4.66 3.68 5.32 2.36 6 1 C6.5775 1.165 7.155 1.33 7.75 1.5 C10.26664369 2.14462031 10.26664369 2.14462031 14 2 C13.67 3.32 13.34 4.64 13 6 C8.71 6 4.42 6 0 6 C0 4.02 0 2.04 0 0 Z " fill="#E6E6E6" transform="translate(176,218)"/>
<path d="M0 0 C0.66 0 1.32 0 2 0 C2.33 1.32 2.66 2.64 3 4 C3.66 4 4.32 4 5 4 C5.66 2.68 6.32 1.36 7 0 C8.32 0.33 9.64 0.66 11 1 C11.33 2.98 11.66 4.96 12 7 C10.02 6.34 8.04 5.68 6 5 C5.01 5.99 4.02 6.98 3 8 C2.01 5.36 1.02 2.72 0 0 Z " fill="#D6D6D6" transform="translate(74,6)"/>
<path d="M0 0 C0.99 0 1.98 0 3 0 C3.66 0.66 4.32 1.32 5 2 C5.33 1.34 5.66 0.68 6 0 C8.31 0 10.62 0 13 0 C11.125 1.0625 11.125 1.0625 9 2 C8.34 1.67 7.68 1.34 7 1 C6.67 2.98 6.34 4.96 6 7 C5.01 7.33 4.02 7.66 3 8 C2.01 5.36 1.02 2.72 0 0 Z " fill="#EBEBEB" transform="translate(36,6)"/>
<path d="M0 0 C3.63 0 7.26 0 11 0 C10.34 1.32 9.68 2.64 9 4 C5.7 4 2.4 4 -1 4 C-0.67 2.68 -0.34 1.36 0 0 Z " fill="#E5E5E5" transform="translate(121,220)"/>
<path d="M0 0 C1.65 0.33 3.3 0.66 5 1 C5.66 3.31 6.32 5.62 7 8 C6.401875 7.814375 5.80375 7.62875 5.1875 7.4375 C2.83591238 6.77906313 2.83591238 6.77906313 0 8 C0 7.34 0 6.68 0 6 C0.66 6 1.32 6 2 6 C2 5.34 2 4.68 2 4 C1.01 4.33 0.02 4.66 -1 5 C-0.67 3.35 -0.34 1.7 0 0 Z " fill="#BABABA" transform="translate(174,6)"/>
<path d="M0 0 C1.98 0 3.96 0 6 0 C6 1.65 6 3.3 6 5 C4.02 5 2.04 5 0 5 C0 3.35 0 1.7 0 0 Z " fill="#EAEAEA" transform="translate(191,219)"/>
<path d="M0 0 C2.97 0 5.94 0 9 0 C8.01 0.33 7.02 0.66 6 1 C6 1.66 6 2.32 6 3 C6.99 3.33 7.98 3.66 9 4 C6.36 4 3.72 4 1 4 C0.67 2.68 0.34 1.36 0 0 Z " fill="#D4D4D4" transform="translate(139,220)"/>
<path d="M0 0 C1.485 0.99 1.485 0.99 3 2 C3.99 2.33 4.98 2.66 6 3 C5.34 3 4.68 3 4 3 C4 3.66 4 4.32 4 5 C4.66 5.33 5.32 5.66 6 6 C4.02 6 2.04 6 0 6 C0 4.02 0 2.04 0 0 Z " fill="#D5D5D5" transform="translate(149,218)"/>
<path d="M0 0 C0.99 0 1.98 0 3 0 C3 2.31 3 4.62 3 7 C0.69 7 -1.62 7 -4 7 C-3.34 6.67 -2.68 6.34 -2 6 C-2 5.34 -2 4.68 -2 4 C-1.34 3.34 -0.68 2.68 0 2 C0 1.34 0 0.68 0 0 Z " fill="#F3F3F3" transform="translate(72,7)"/>
<path d="M0 0 C0.66 0 1.32 0 2 0 C2.33 1.32 2.66 2.64 3 4 C3.66 4 4.32 4 5 4 C5.33 3.34 5.66 2.68 6 2 C5.625 4.4375 5.625 4.4375 5 7 C4.01 7.495 4.01 7.495 3 8 C2.01 5.36 1.02 2.72 0 0 Z " fill="#CFCFCF" transform="translate(74,6)"/>
<path d="M0 0 C0.99 0 1.98 0 3 0 C3.66 1.65 4.32 3.3 5 5 C4.34 5.66 3.68 6.32 3 7 C2.01 4.69 1.02 2.38 0 0 Z " fill="#F2F2F2" transform="translate(36,6)"/>
</svg>
